<svg xmlns="http://www.w3.org/2000/svg" style="color-scheme:light only" viewBox="0 0 800 800"><path fill="#fff" stroke="#000" stroke-width="30" stroke-linejoin="round" d="M215 590h370c22 0 35 13 35 35v35c0 22-13 35-35 35H215c-22 0-35-13-35-35v-35c0-22 13-35 35-35z"/><path fill="#fff" stroke="#000" stroke-width="30" stroke-linejoin="round" d="M400 130a100 100 0 1 1 0 200 100 100 0 0 1 0-200z"/><path fill="#fff" stroke="#000" stroke-width="30" stroke-linejoin="round" d="M325 320h150c-6 105 38 195 110 275H215c72-80 116-170 110-275z"/><path fill="none" stroke="#000" stroke-width="16" stroke-linecap="round" stroke-linejoin="round" d="M215 642h370"/><path fill="none" stroke="#000" stroke-width="16" stroke-linecap="round" stroke-linejoin="round" d="M365 540l-70-70m0 0v45m0-45h45"/><path fill="none" stroke="#000" stroke-width="16" stroke-linecap="round" stroke-linejoin="round" d="M435 540l70-70m0 0v45m0-45h-45"/></svg>
